<?xml version="1.0" encoding="utf-8"?>
<!-- Generator: Adobe Illustrator 25.0.0, SVG Export Plug-In . SVG Version: 6.00 Build 0)  -->
<svg version="1.1" id="图层_1" xmlns="http://www.w3.org/2000/svg" xmlns:xlink="http://www.w3.org/1999/xlink" x="0px" y="0px"
	 viewBox="0 0 1920 1080" style="enable-background:new 0 0 1920 1080;" xml:space="preserve">
<style type="text/css">
	.st0{fill:none;}
</style>
<g>
	<path class="st0" d="M1355.1,1047.7c-163.2,0-326.4,0-489.6,0c-2.8,0-5.7,0-8.5-0.1c-2.6-0.1-3.2-0.9-3.1-3.7
		c0.1-8.7,0.3-17.5,0.3-26.2c0-5.2,0.1-10.4-1-15.5c-0.4-1.8-0.3-3.8-0.3-5.7c0-5.2,0-10.4,0-15.6c0-1.4,0.1-2.8,0.2-4.2
		c0.2-3.3,0.6-6.6,0.8-9.9c0.5-8.3-0.7-16.4-2.3-24.6c-1.3-6.4-2.3-13-2.9-19.5c-0.5-6.3-0.3-12.8-0.3-19.1c0-1.4,0.5-2.8,0.9-4.1
		c2.1-6,5.9-10.7,10.5-14.9c7.9-7.2,15.8-14.2,23.7-21.3c1.1-0.9,2.1-1.9,3.3-2.7c11.1-7.3,20.8-16.3,30.5-25.3c1-1,2.1-1.9,3.2-2.8
		c6.9-4.9,13.8-9.9,20.8-14.8c10.1-7,20.5-13.6,31.1-19.8c1-0.6,2-1.3,3-1.8c11.1-5.1,20-13.3,29.6-20.5c3.1-2.4,4.2-5.3,4.9-8.9
		c1.8-10.1,0-19.8-2-29.5c-1.3-6.2-2.6-12.5-4.1-18.7c-0.6-2.5-1.7-4.9-2.8-7.3c-2.4-5.4-4.8-10.8-7.3-16.1
		c-3.5-7.2-7.1-14.4-10.6-21.6c-0.9-1.8-2.1-3.1-3.9-4c-2.1-1.1-4.1-2.3-6.2-3.5c-5.2-2.9-9.8-6.7-13.3-11.6
		c-1.7-2.4-3.8-4.2-6.3-5.6c-9.1-5.3-16.7-12.2-23-20.7c-2.8-3.7-6.5-6.9-10.1-9.9c-3.5-2.9-6.7-5.9-9.7-9.3
		c-5.7-6.6-11.6-13.1-17.3-19.7c-7-8.1-12.2-17.4-17.2-26.8c-0.4-0.8-0.9-1.7-1-2.6c-1.2-8.5-4.9-16.3-7.1-24.5
		c-1.4-5.2-3.1-10.4-4.9-15.5c-0.9-2.7-2.3-5.1-4.6-7c-3.3-2.7-5.6-6.3-8.2-9.7c-4.2-5.5-7.8-11-9.6-17.8c-1.1-4.3-3.5-8.2-5.5-12.3
		c-0.6-1.2-1.5-2.4-2.4-3.4c-0.2-0.2-1.6,0-1.7,0.3c-1.9,4.4-2.8,9.1-3,13.8c-0.5,12.9-3.9,25.2-7,37.6
		c-3.3,13.4-9.9,25.5-18.6,36.4c-0.3,0.4-0.6,0.8-0.9,1.1c-2.1,2.1-2.6,4.3-0.8,7c1,1.6,1.7,3.4,2.5,5.1c1.7,3.5,1.5,5.1-1.6,7.2
		c-2.9,2-6,3.7-9.1,5.4c-1.2,0.7-2.6,1.1-3.9,1.7c-2.2,1-3.8,2.6-5.1,4.7c-9.3,15.2-21,28.5-33.4,41.3c-1.2,1.2-2.3,2.5-3.6,3.5
		c-3.4,2.7-4.1,5.6-2.6,9.9c1.2,3.2,1,7,1,10.5c0.1,3.6,0.6,6.9,2.5,10.1c2.2,3.9,3.8,8.1,5.3,12.3c1.6,4.4,3.4,8.8,5.8,12.9
		c1.5,2.7,2.7,5.5,3.9,8.3c1.4,3.2,2.5,6.6,4.1,9.8c4.9,9.8,7.7,20.3,9.9,31c0.5,2.5,1.1,5.1,2.1,7.5c3.4,8.1,5,16.7,7.3,25.1
		c1.3,5,3.8,9.6,5.8,14.4c1,2.4,2.1,4.8,3.3,7c1.4,2.7,2.8,5.5,4.6,7.9c6.4,8.6,11.3,18,16.4,27.3c1.4,2.6,2.2,5.7,2.9,8.7
		c0.5,2.4,1.3,4.5,2.9,6.3c3.1,3.5,4.6,7.7,4.3,12.4c-0.2,4.2,1.1,7.7,3.3,11.3c2.2,3.6,3.7,7.6,5.1,11.6c1.8,5.1,3.1,10.4,4.7,15.6
		c0.8,2.7,1.5,5.3,3.8,7.4c2.1,2,2.9,4.8,2.9,7.8c0,1.9,0.1,3.8,0,5.7c-0.2,5.9,0.6,11.7,1.6,17.6c2.2,12.5,4.8,25.1,3.6,38
		c-0.6,7.1-1.1,14.1-0.9,21.2c0.1,4.5-0.4,9,1.2,13.3c0.5,1.3,0.2,2.8,0.2,4.2c0,10.4,0,20.8,0,31.2c0,1.4-0.1,2.8-0.3,4.2
		c-0.2,1.3-1.1,2.1-2.4,2.3c-0.9,0.2-1.9,0.2-2.8,0.2c-2.1,0-4.3,0-6.4,0c-248.1,0-496.2,0-744.3,0c-2.8,0-5.7-0.1-8.5-0.2
		c-1.1,0-1.7-0.9-1.5-1.9c0.4-2.1,0.8-4.2,1.5-6.2c3.2-9.1,6.5-18.2,9.7-27.4c0.9-2.4,1.6-4.9,2.4-7.4c3.9-13.2,8.9-25.9,15-38.2
		c1.2-2.3,2.2-4.7,3.1-7.2c2.3-6.5,5.4-12.6,8.9-18.5c2.8-4.7,5.4-9.5,7.6-14.4c3-6.5,6.7-12.4,10.5-18.4
		c9.1-14.3,20.3-26.7,32.2-38.6c2-2,3.8-4.2,5.4-6.5c3.6-5.3,7.7-10.2,12.1-14.8c2.4-2.5,4.6-5.4,6.4-8.4c4.1-7,9-13.3,14.8-19
		c6.4-6.3,12.7-12.7,19.9-18.2c1.5-1.1,2.9-2.4,4.2-3.8c5.9-6,12.7-10.5,20-14.5c9.9-5.5,19.5-11.6,27.9-19.4
		c9.1-8.4,19.4-15.1,31.1-19.3c2.6-1,5.2-2.4,7.5-3.9c6.5-4.3,13.3-8.2,20.5-11.1c1.9-0.8,3.8-2,5.2-3.5c7-7.6,14.9-13.8,24.4-18
		c2.4-1.1,3.5-2.8,4-5.4c2.7-13,7.7-25.3,13.3-37.3c3.4-7.5,7.1-14.9,8.6-23.2c0.1-0.7,0.2-1.4,0.1-2.1c0-0.2-0.7-0.6-0.9-0.5
		c-0.6,0.3-1.1,0.8-1.7,1.2c-4.1,2.4-6.5,2.2-10.2-0.9c-0.7-0.6-1.3-1.4-2.2-1.8c-9.7-4.1-16.3-11.8-23.3-19.2
		c-1.9-2.1-3.6-4.4-5.5-6.5c-2.3-2.6-2.8-2.6-6.1-1.3c-1.8,0.7-3.6,1.3-5.3,2c-3.1,1.4-6.4-1.3-6.8-4.1c-0.8-7-2.1-14-1.5-21.2
		c0.1-0.7,0.1-1.4,0-2.1c-0.6-8.1,1.1-16,2-24c0.4-3.3,0.9-6.6,0.7-9.8c-0.3-5.2,2.2-8.6,6.4-10.9c3.7-2,7.7-3.6,12.2-3.3
		c4,0.2,8,0.1,12.1,0c1.8,0,3.9,1.6,5.4,0c1.1-1.1,1.4-2.9,1.9-4.5c2.3-6.4,11.3-12,20.1-8.1c1.3,0.6,2.5,1.3,3.8,1.9
		c0.9,0.4,1.8-0.1,2-1.2c0.1-0.5,0.2-0.9,0.2-1.4c0.1-4.7,1.7-8.8,5.3-11.9c2.2-1.9,2.7-4.2,2.7-7c0-9.5,0.1-18.9-1.4-28.3
		c-0.6-3.7-0.8-7.5-0.9-11.3c-0.1-22.7,0-45.4,0-68.1c0-10.2,1.4-20.2,4-30.1c2.5-9.4,4.9-18.7,8.5-27.8c1-2.4,1.5-5,2.1-7.5
		c0.1-0.3-0.3-0.8-0.5-1.2c0-0.1-0.5,0-0.7,0.1c-2.8,3.2-5.6,6.3-7.2,10.4c-1.2,3.1-2.6,6.1-4.1,9c-6.2,11.5-11.3,23.4-13.1,36.4
		c-0.7,4.7-1.6,9.3-2.4,14c-0.3,1.6-0.7,3.2-2.2,4.3c-0.9,0.6-2.7,0.2-3-0.8c-0.2-0.9-0.4-1.9-0.3-2.8c1.8-13.6,4-27.1,9.6-39.8
		c2.2-5,4.2-10,7.2-14.6c0.8-1.2,1.6-2.4,2-3.8c1.8-7.4,7.1-12.7,11-18.9c1.6-2.6,3.7-4.7,4.9-7.7c0.8-2,2.8-3.8,4.7-5.2
		c2.8-2.1,4.5-4.8,5.8-7.9c2.8-6.8,5.6-13.5,8.4-20.3c0.5-1.3,1-2.7,1.4-4c2-8.1,5.3-15.6,9.8-22.7c0.4-0.6,0.6-1.3,0.9-1.9
		c0.1-0.2,0-0.5-0.2-0.6c-0.1-0.1-0.5-0.3-0.6-0.2c-1.8,1.1-3.8,2.1-5.2,3.5c-3.9,3.8-7.7,7.7-11.1,11.9
		c-4.3,5.3-7.8,11.1-11.1,17.2c-4.4,8.2-7.7,16.7-11,25.3c-1,2.6-2.4,5.1-3.7,7.6c-0.3,0.6-0.9,1.3-1.4,1.4
		c-0.8,0.2-1.9,0.2-2.6-0.1c-0.5-0.2-0.9-1.2-0.8-1.8c0.1-1.1,0.6-2.3,1-3.4c1.6-3.9,3.4-7.8,4.8-11.8c3.7-10.3,8.7-19.9,14.4-29.1
		c7.4-12.1,17.4-21.7,29-29.7c0.6-0.4,1.1-0.9,1.8-1.2c5.6-1.9,9.2-6.3,13.1-10.5c3.5-3.8,7.6-7.1,11.5-10.5
		c6.1-5.2,12.2-10.4,18.5-15.5c6.4-5.2,12.9-10.3,19.6-15.2c5.8-4.2,12.4-6.9,19.1-9.2c5.2-1.7,10-4.2,14.4-7.5
		c5.3-3.9,10.8-7.6,16.2-11.4c0.3-0.2,0.4-0.7,0.7-1.1c-0.4-0.2-0.8-0.5-1.3-0.5c-0.7,0-1.4,0.1-2.1,0.4c-1.3,0.5-2.6,1.1-4,1.6
		c-5.3,2-10.7,3.8-15.9,6c-3.5,1.5-6.7,3.4-10,5.2c-0.8,0.4-1.5,1.3-2.3,1.6c-6.3,2.2-11.4,6.7-17.3,9.7c-3.3,1.7-6.2,4.2-9.3,6.4
		c-1.7,1.2-3.4,2.6-5.1,3.8c-1,0.7-2.3,0.8-3.2-0.3c-0.9-1-0.6-2.3,0-3.3c0.6-1,1.4-1.9,2.4-2.6c4.7-3.5,9.4-7.1,14.6-9.9
		c6.6-3.5,12.9-7.8,19.5-11.5c3.1-1.7,6.4-3.1,9.6-4.4c10.5-4.2,21.1-8.3,31.7-12.3c4.8-1.8,9.8-3.2,14.9-4.3
		c8.2-1.7,16.4-1.5,24.7-1.2c2.5,0.1,4.6-0.7,6.8-1.7c9.9-4.3,20.3-6.4,31.1-5.7c4.9,0.3,9.8,1.3,14.7,2.2c2.6,0.5,5.1,1,7.7,0
		c3.7-1.3,7.1-0.5,10.1,1.7c3,2.2,6.3,3.3,9.8,4c5.4,1,9,4.2,12.7,8.2c7.9,8.5,14.6,17.9,21.8,27c1,1.3,2,2.6,3.1,3.9
		c2.5,2.8,4,3.6,6.5-0.1c4.1-6.1,10.2-8.9,17.4-9.3c3.1-0.2,6.2,0.1,9.2-0.1c5.2-0.3,9.8,1.4,14,4.2c3.3,2.3,6.7,4.4,9.9,6.9
		c4.4,3.4,7,8.2,9.1,13.2c0.2,0.6-0.4,2-1,2.3c-0.6,0.4-2.1,0.2-2.6-0.3c-1.3-1.3-2.5-2.8-3.5-4.4c-4.6-7.7-12.3-11.5-19.7-15.6
		c-1.4-0.7-3.2-0.8-4.8-0.9c-2.8-0.1-5.7,0.2-8.5-0.1c-5.1-0.5-9.2,1.8-13.1,4.5c-0.7,0.5-1.1,1.5-1.5,2.3c-0.1,0.2,0.3,1,0.6,1.1
		c0.7,0.1,1.4,0,2-0.1c8.8-2.4,17.3-2.1,25.5,2.1c2.7,1.4,5.2,3.2,7.6,5.2c6.6,5.5,11.9,12.1,16.5,19.3c0.6,1,1.2,2,1.9,3
		c1.2,1.7,2.2,3.7,4.7,3.9c0.9-1.6,1.8-3.3,2.7-4.9c0.2-0.4,0.4-0.9,0.6-1.3c5.4-11,11.2-21.9,16-33.2c14.2-25,35.6-40,64-44.5
		c6.2-1,12.7-0.5,19.1-0.6c2.1,0,4.2,0.3,6.4,0.3c0.6,0,1.3-0.4,1.9-0.7c-0.5-0.7-1-1.7-1.7-2c-1.9-0.8-4-1.6-6-1.9
		c-10.3-1.1-20.6-2.7-31.1-2.5c-6.8,0.1-13.2,1.5-19.4,3.7c-6.4,2.3-12.6,5.3-18.8,8.2c-2.9,1.4-5.8,3.3-8.3,5.4
		c-8.1,6.8-16.7,13.2-22.4,22.4c-0.2,0.4-0.6,0.7-0.9,1.1c-0.9,0.9-1.9,1.5-3.2,0.9c-1.1-0.5-1.6-2.4-1-3.8c0.2-0.4,0.3-0.9,0.6-1.3
		c3.4-4.2,6.7-8.6,10.4-12.5c3.4-3.6,7.4-6.6,11.2-9.8c5.7-4.7,11.7-8.7,18.9-10.8c1.3-0.4,2.6-1.1,3.9-1.8
		c5.5-2.9,11.3-4.6,17.3-6.1c1.8-0.4,3.7-1,5.6-1c8.3,0.1,16.5-0.8,24.8,0.8c3,0.6,6.1,0.7,9.2,1c5.4,0.6,10.8,1.4,15.4,4.7
		c0.3,0.2,1,0.1,1.2-0.1c0.3-0.2,0.5-0.9,0.3-1.2c-1.3-2.5-2.5-5.1-4-7.5c-2.4-4-4.9-8-7.5-12c-1.4-2.2-3.1-4.2-6-4.6
		c-1.7-0.3-3-1.3-3.9-2.8c-4-6.7-8.1-13.3-12.1-20c-0.6-1-0.2-2.8,0.8-3.1c0.8-0.2,1.8-0.1,2.6,0.2c0.6,0.2,1.1,0.8,1.6,1.3
		c0.5,0.5,0.9,1.1,1.2,1.7c2.6,4.2,5.2,8.4,7.7,12.7c1.3,2.3,2.8,4.2,5.6,5c3.9,1.2,5.7,4.8,7.8,7.9c1.7,2.5,3.1,5.3,4.8,7.8
		c4.5,7,8.2,14.4,11.5,21.9c1,2.3,2.1,4.1,4.5,5.1c8.8,3.7,16.6,9,23.8,15.3c0.4,0.3,0.7,0.6,1.2,0.8c0.4,0.2,1,0.4,1.3,0.2
		c0.3-0.2,0.7-0.8,0.6-1.2c-0.6-4-0.7-8.1-2-11.8c-2.1-6-4.7-11.9-8.5-17.1c-2.2-3.1-4.6-5.9-8.7-6.7c-2.4-0.5-4.1-2.2-5.4-4.4
		c-0.7-1.1-0.7-2.4,0.4-3.1c0.7-0.4,2-0.8,2.5-0.4c2.6,1.7,5.2,3.1,8.2,4c1.1,0.3,2,1.2,2.8,2.1c3.7,4,7.1,8.2,9.3,13.3
		c1.7,3.9,3.5,7.8,5.3,11.6c0.2,0.4,0.5,0.7,0.8,1.1c0.2-0.5,0.5-1.1,0.7-1.6c0.1-0.4,0.1-0.9,0.1-1.4c-0.3-8.9,3-16.7,7.1-24.2
		c3-5.4,7.7-8.9,13.8-10.3c0.9-0.2,1.9,0,2.8,0.1c1.1,0.2,1.7,2.1,0.9,2.8c-1,0.9-2.1,1.9-3.4,2.4c-5.6,2.2-8.9,6.4-11.6,11.8
		c-4.3,8.7-4.7,17.7-3.9,27c0,0.4,0.4,1,0.7,1.1c0.3,0.1,0.9-0.1,1.3-0.4c0.6-0.4,1-1,1.5-1.5c5.6-6.5,12.1-12,19.4-16.4
		c2.6-1.6,4.4-3.4,5.2-6.4c2.8-10,9.5-16.7,18.2-21.6c4.1-2.3,7.8-5.4,12.5-6.5c7.4-1.7,14.8-2.8,22.4-2.4c0.5,0,1.1,0,1.4,0.3
		c0.7,0.6,1.6,1.3,1.6,2c0,0.7-0.7,1.9-1.3,2.2c-1.3,0.5-2.7,0.5-4.1,0.7c-5.2,0.5-10.3,1-15.5,1.6c-1.8,0.2-3.8,0.7-5.4,1.6
		c-6.4,3.5-13,6.8-18.2,12.1c-1.8,1.8-3.6,3.8-4.2,6.5c-0.1,0.6-0.3,1.5,0.1,2c0.3,0.4,1.3,0.6,1.8,0.5c5-1.4,10-2.8,15-4.3
		c1.1-0.3,2.5-0.9,2.9-1.8c2.9-5.2,8.2-6.8,13-9c7.3-3.4,15.2-3.3,22.9-3.9c6.3-0.5,12.8-0.3,19.1,0c5.4,0.3,10.8,1,16.1,1.9
		c4.1,0.7,7.2,3.5,10,6.3c0.5,0.5,0.6,1.9,0.3,2.6c-0.5,1.2-1.9,1.5-3,1c-1.3-0.5-2.6-1.2-3.7-2c-2.6-1.9-5.5-2.5-8.5-3.1
		c-9.1-1.8-18.4-1.6-27.6-1.4c-5.6,0.2-11.3,0.9-16.9,1.7c-2.3,0.3-4.5,1.4-6.7,2.3c-0.4,0.1-0.6,0.6-0.9,1c0.3,0.2,0.7,0.7,1,0.7
		c2.1,0.1,4.3,0.1,6.4,0c12.6-0.9,24.4,2.1,35.7,7.5c12.9,6.1,24.7,13.9,35.6,23.1c6,5.1,11.1,10.9,15.5,17.4
		c3.7,5.5,7.5,10.9,10.9,16.6c2.5,4,4.8,8.2,6.6,12.5c4.7,11.1,9,22.4,13.6,33.5c1,2.4,2.3,4.7,3.7,6.8
		c7.7,11.5,13.6,23.8,18.4,36.7c1.6,4.2,2.7,8.6,3.7,12.9c1.8,7.8,3.6,15.7,5,23.6c1.2,6.5,2,13.1,2.6,19.7
		c0.4,4.2,1.5,7.5,4.8,10.5c5.2,4.6,5.3,10.7,3.3,17c-0.2,0.7-0.5,1.3-0.9,1.9c-3.9,5.3-4.4,11.3-4.3,17.6c0.1,3.5-0.4,7.1-0.5,10.6
		c-0.1,2.1,0,4.2,0.3,6.3c0.9,5.2,0.8,10.3-1.2,15.3c-0.4,1.1-1,2.3-0.9,3.4c0.3,5.8-2.4,10.5-5,15.3c-2.5,4.8-5.3,9.5-7.9,14.2
		c-3.3,6-7,11.9-11.7,16.8c-2.6,2.7-3.8,5.9-4.1,9.5c-0.2,2.4-0.2,4.7-0.2,7.1c0.1,18.9,0.3,37.8,0.3,56.7c0,2.8-0.4,5.6-0.9,8.4
		c-1.5,9.1-3.4,18.1-4.6,27.2c-0.8,5.9,0,11.8,3.4,17c0.7,1,1.3,2,1.8,3c4.4,9.4,12.1,15.5,20.7,20.8c7.4,4.7,15.2,8.5,23.5,11.5
		c7.3,2.7,14.2,6.4,20.9,10.5c12.6,7.7,26,13.4,40.9,14.9c3.8,0.4,7.5,1.2,11.2,1.7c4.2,0.5,8.5,1.1,12.7,1.1
		c33.1,0.1,66.2,0.1,99.3,0c8.8,0,17.5,0.6,25.9,3.1c4.5,1.4,9.1,2.8,13.3,4.8c5.3,2.5,10.7,3.6,16.4,3.9c7.3,0.5,14.6,1.2,21.9,2.1
		c8.7,1.1,16.9,4.3,25.1,7.5c9.3,3.7,19.1,5.5,28.8,7.1c7.8,1.3,15.2,3.2,22.4,6.5c1.7,0.8,3.4,1.7,5.2,2.2c8.3,2,16.1,5.5,24,8.5
		c4.2,1.6,8.2,3.7,12.1,5.8c5,2.7,9.8,5.8,14.8,8.4c11.2,5.8,21.6,12.6,31,21c5.3,4.7,11,9,16.8,13.1c7.4,5.2,14.1,11.2,19.6,18.3
		c2.7,3.5,6,5.8,10.1,7.5c11.5,5,22.3,11.3,32.4,18.9c14.8,11.1,28,23.9,41.9,36.1c7.3,6.4,14.9,12.4,22.3,18.6
		c3.8,3.2,7.7,6.3,11.2,9.7c2.9,2.9,5.9,5.4,9.6,7.2c16,8,27.3,20.8,37.2,35.2c2,2.9,3.8,6,5.9,8.8c1.7,2.4,2.5,5,2.4,8
		c-0.1,2.4,0,4.7,0,7.1c0,38.3,0,76.6,0,114.9c0,9.5,0.6,8.9-8.8,8.9C1684.3,1047.7,1519.7,1047.7,1355.1,1047.7z"/>
</g>
</svg>
